<?xml version="1.0" encoding="UTF-8"?> <svg xmlns="http://www.w3.org/2000/svg" width="104.021" height="103.915" viewBox="0 0 104.021 103.915"><g id="Group_5154" data-name="Group 5154" transform="translate(0.511 0.511)"><circle id="Ellipse_46" data-name="Ellipse 46" cx="30" cy="30" r="30" transform="translate(21 21)" fill="#fff"></circle><path id="Union_1" data-name="Union 1" d="M49.733,102.792a6.767,6.767,0,1,1,1.226.112A6.762,6.762,0,0,1,49.733,102.792ZM95.008,59.166a6.766,6.766,0,1,1,1.226.112A6.762,6.762,0,0,1,95.008,59.166Zm-89.458,0a6.766,6.766,0,1,1,1.226.112A6.762,6.762,0,0,1,5.55,59.166Zm44.183-45.74a6.766,6.766,0,1,1,1.226.112A6.762,6.762,0,0,1,49.733,13.425Z" transform="translate(0 0)" fill="#f33" stroke="rgba(0,0,0,0)" stroke-miterlimit="10" stroke-width="1" opacity="0"></path><path id="Subtraction_2" data-name="Subtraction 2" d="M36.82,73.741a37.039,37.039,0,0,1-7.42-.749,36.591,36.591,0,0,1-13.166-5.548A36.973,36.973,0,0,1,2.893,51.222,36.722,36.722,0,0,1,.748,44.3a37.279,37.279,0,0,1,0-14.861,36.7,36.7,0,0,1,5.54-13.184A36.935,36.935,0,0,1,22.488,2.9,36.6,36.6,0,0,1,29.4.749a37.126,37.126,0,0,1,14.841,0A36.59,36.59,0,0,1,57.405,6.3a36.972,36.972,0,0,1,13.34,16.222A36.721,36.721,0,0,1,72.89,29.44a37.191,37.191,0,0,1,.748,7.431,36.747,36.747,0,0,1-8.1,23.07,5.564,5.564,0,0,0-6.112.941,5.71,5.71,0,0,0-1.829,3.6,8.361,8.361,0,0,0-11.031.787A8.553,8.553,0,0,0,44.1,71.3a8.7,8.7,0,0,0,.166,1.689A37.037,37.037,0,0,1,36.82,73.741Zm9.19-22.713a.26.26,0,0,1,.051.005.51.51,0,0,0,.107.012h.049a.211.211,0,0,0,.058-.005.726.726,0,0,1,.1-.008.577.577,0,0,0,.1-.008.177.177,0,0,1,.042-.005h.034a.157.157,0,0,0,.059-.013c.069-.011.13-.02.186-.028a.847.847,0,0,0,.179-.044c.06-.022.115-.04.171-.056a1.25,1.25,0,0,0,.17-.063,2.088,2.088,0,0,0,.456-.282,1.831,1.831,0,0,0,.353-.377c.041-.062.08-.126.115-.19s.073-.13.115-.2a1.356,1.356,0,0,0,.119-.317c.028-.116.057-.233.087-.349a.423.423,0,0,0,.016-.163.137.137,0,0,0-.063-.115.074.074,0,0,0-.044-.02.292.292,0,0,1-.052-.012h-.056a.306.306,0,0,0-.071-.008H48.21c-.068,0-.132,0-.19.008a.158.158,0,0,0-.127.072.371.371,0,0,0-.052.139c-.009.054-.018.1-.028.147a2.531,2.531,0,0,1-.119.341,1.561,1.561,0,0,1-.873.833.594.594,0,0,1-.147.044c-.047.007-.1.016-.155.028a.113.113,0,0,1-.051.013h-.034a.18.18,0,0,0-.042.005h-.056a.37.37,0,0,1-.112.013h-.039a1.048,1.048,0,0,1-.143-.012.387.387,0,0,0-.091-.013h-.039a.31.31,0,0,1-.084-.013l-.25-.072a1.234,1.234,0,0,1-.226-.087,1.664,1.664,0,0,1-.563-.464,2.388,2.388,0,0,1-.349-.678,1.618,1.618,0,0,1-.052-.195c-.014-.071-.029-.137-.044-.2a.192.192,0,0,1-.012-.087.239.239,0,0,0-.012-.1.322.322,0,0,1-.012-.111.322.322,0,0,0-.012-.111v-.079a.462.462,0,0,1,0-.107c0-.039,0-.078,0-.115,0-.068,0-.129,0-.186a1.34,1.34,0,0,1,.02-.178.232.232,0,0,0,.008-.056.238.238,0,0,1,.008-.056.311.311,0,0,0,.016-.1.309.309,0,0,1,.016-.1c.027-.086.052-.17.075-.25a1.374,1.374,0,0,1,.091-.234,1.754,1.754,0,0,1,.96-.952.773.773,0,0,1,.143-.047l.151-.032a1.064,1.064,0,0,1,.194-.036,2.287,2.287,0,0,1,.238-.012,2.172,2.172,0,0,1,.234.012,1.268,1.268,0,0,1,.2.036l.234.063a.726.726,0,0,1,.21.1,1.915,1.915,0,0,1,.305.238,1.431,1.431,0,0,1,.234.3.787.787,0,0,1,.087.19.652.652,0,0,0,.087.182.172.172,0,0,0,.131.075,1.544,1.544,0,0,0,.2.012h.067a.187.187,0,0,0,.06-.008h.079l.091-.028a.084.084,0,0,0,.059-.059.2.2,0,0,0,.008-.123.812.812,0,0,0-.032-.107,2.331,2.331,0,0,0-.1-.274,2.013,2.013,0,0,0-.952-.976,2.7,2.7,0,0,0-1.217-.251h-.088a.04.04,0,0,1-.018,0,.071.071,0,0,1-.022,0,.07.07,0,0,0-.022,0,.039.039,0,0,0-.018,0c-.045.005-.085.009-.123.012s-.078.006-.123.012l-.1.016-.1.016a1.668,1.668,0,0,1-.194.052.849.849,0,0,0-.186.06c-.093.041-.185.084-.274.127a1.616,1.616,0,0,0-.25.151c-.036.026-.069.051-.1.075l-.091.075c-.037.032-.073.063-.107.1a.846.846,0,0,0-.1.111.25.25,0,0,1-.06.068.244.244,0,0,0-.06.067c-.079.11-.159.236-.238.373a1.239,1.239,0,0,0-.1.194c-.033.081-.059.148-.083.21a1.14,1.14,0,0,0-.072.238c-.016.083-.037.171-.063.262a.386.386,0,0,0-.016.107.314.314,0,0,1-.016.1.685.685,0,0,0-.02.131c0,.045-.007.089-.012.131v.071a.063.063,0,0,0,0,.044.085.085,0,0,1,0,.052.583.583,0,0,0,0,.27V48.4a.878.878,0,0,1,.02.151.919.919,0,0,0,.02.15.223.223,0,0,1,0,.072.145.145,0,0,0,.012.071c.018.084.032.152.044.214a1.545,1.545,0,0,0,.051.2,3.166,3.166,0,0,0,.492.936,2.014,2.014,0,0,0,.809.611,1.548,1.548,0,0,0,.3.119.739.739,0,0,0,.135.036c.052.009.1.018.143.028a.679.679,0,0,0,.119.02.709.709,0,0,1,.119.02h.079a.257.257,0,0,0,.051.005h.049Zm-19.188-5.9-.132,0c-.041,0-.084,0-.131,0s-.089.007-.131.012a.4.4,0,0,1-.075.008.207.207,0,0,0-.075.016,1.391,1.391,0,0,1-.17.036.829.829,0,0,0-.171.043,2.488,2.488,0,0,0-.781.417,2.651,2.651,0,0,0-.567.638,2.027,2.027,0,0,0-.218.448c-.055.16-.11.33-.163.5a1.592,1.592,0,0,0-.036.19,1.652,1.652,0,0,1-.036.19.417.417,0,0,0-.008.083.417.417,0,0,1-.008.083.6.6,0,0,0-.008.1v.167a.546.546,0,0,0-.016.159.465.465,0,0,0,.016.151v.071a.127.127,0,0,1,0,.056.176.176,0,0,0,0,.064,1.583,1.583,0,0,1,.036.19,1.266,1.266,0,0,0,.036.182.134.134,0,0,1,.016.059.253.253,0,0,0,.008.06c.03.083.054.151.075.214s.049.135.075.2a2.727,2.727,0,0,0,.547.805,2.67,2.67,0,0,0,.793.551,1.514,1.514,0,0,0,.262.087c.09.021.183.045.278.072a.663.663,0,0,0,.155.028,1.329,1.329,0,0,1,.163.02H26.7a.486.486,0,0,0,.1.008.373.373,0,0,0,.087-.008h.079a.161.161,0,0,1,.052-.008h.051a.439.439,0,0,1,.1-.008,1.178,1.178,0,0,1,.119-.024.823.823,0,0,0,.111-.024c.14-.041.275-.087.4-.135a1.791,1.791,0,0,0,.353-.183.767.767,0,0,0,.119-.091,1.458,1.458,0,0,1,.119-.1.816.816,0,0,0,.071-.064.2.2,0,0,1,.087-.047.135.135,0,0,1,.035-.005.093.093,0,0,1,.088.068,1.393,1.393,0,0,1,.052.143c.015.05.029.1.042.136l0,.007a.427.427,0,0,0,.052.111.2.2,0,0,0,.087.071.448.448,0,0,0,.167.024.216.216,0,0,0,.1-.016.169.169,0,0,0,.1-.1.261.261,0,0,0,.016-.1V48.32c0-.042,0-.085,0-.127a.29.29,0,0,0-.012-.111.161.161,0,0,0-.079-.1.454.454,0,0,0-.131-.04.788.788,0,0,0-.12-.009H28.9c-.054,0-.111,0-.174,0H27.047a.255.255,0,0,0-.1.016.181.181,0,0,0-.111.079.249.249,0,0,0-.028.083.62.62,0,0,0-.012.123.923.923,0,0,0,.008.123.3.3,0,0,0,.024.091.143.143,0,0,0,.079.087.487.487,0,0,0,.167.024h1.285a.329.329,0,0,1,.175.04.211.211,0,0,1,.071.163.677.677,0,0,1-.016.21c-.01.04-.019.081-.028.127s-.016.082-.028.127a1.648,1.648,0,0,1-.992,1.055.849.849,0,0,1-.186.06c-.066.013-.137.031-.21.052a.144.144,0,0,1-.055.011l-.029,0-.029,0a.148.148,0,0,0-.055.01.6.6,0,0,1-.1.008h-.107a1.6,1.6,0,0,1-.444-.056l-.119-.032a.973.973,0,0,1-.111-.04,1.748,1.748,0,0,1-.77-.587c-.041-.052-.082-.106-.123-.167a1.027,1.027,0,0,1-.1-.182c-.033-.077-.064-.153-.091-.226s-.058-.158-.083-.234c-.01-.04-.019-.082-.028-.123s-.018-.084-.028-.123a.235.235,0,0,1-.008-.1.232.232,0,0,0-.008-.1.1.1,0,0,1-.008-.044.1.1,0,0,0-.008-.043V48.28a.709.709,0,0,1-.008-.127.862.862,0,0,1,.008-.135v-.087a.4.4,0,0,0,.012-.123.332.332,0,0,1,.012-.115.157.157,0,0,0,.012-.075.154.154,0,0,1,.012-.075c.016-.064.029-.128.039-.19a1.04,1.04,0,0,1,.048-.182,2.562,2.562,0,0,1,.337-.686A1.851,1.851,0,0,1,25.857,46a1.76,1.76,0,0,1,.484-.2l.1-.016.1-.016.04,0a.245.245,0,0,1,.04,0,.621.621,0,0,1,.1-.008h.206a.1.1,0,0,0,.034.005H27a.165.165,0,0,1,.04.005,1.383,1.383,0,0,0,.143.024,1.322,1.322,0,0,1,.143.024c.091.027.179.056.262.087a1.634,1.634,0,0,1,.238.111.491.491,0,0,1,.071.052.5.5,0,0,0,.071.052,1.125,1.125,0,0,1,.143.135.2.2,0,0,0,.04.043c.017.014.03.026.039.036a1.81,1.81,0,0,1,.115.178,1.459,1.459,0,0,1,.091.194.772.772,0,0,1,.052.135.214.214,0,0,0,.067.111.189.189,0,0,0,.087.04.087.087,0,0,0,.039.011l.017,0a.073.073,0,0,1,.048,0,.549.549,0,0,0,.262,0h.056a.16.16,0,0,1,.052-.008.06.06,0,0,0,.044-.016.139.139,0,0,0,.063-.127.572.572,0,0,0-.024-.167c-.04-.1-.081-.2-.127-.31a1.852,1.852,0,0,0-.151-.285.765.765,0,0,0-.087-.115.765.765,0,0,1-.087-.115l-.014-.014,0,0,0,0-.014-.014-.032-.032a1.726,1.726,0,0,0-.262-.214,2.38,2.38,0,0,0-.73-.337A3.1,3.1,0,0,0,26.822,45.129Zm23.34.129h0a.475.475,0,0,1-.075.024.055.055,0,0,0-.043.048c-.016.016-.019.042-.008.079a.464.464,0,0,0,.079.151c.069.106.137.209.2.305s.141.211.2.306c.178.267.354.538.524.805s.349.544.524.805l.309.476c.044.072.084.135.123.194a.864.864,0,0,1,.1.226v.1a.277.277,0,0,1,.008.068v1.408c0,.047,0,.1,0,.159s0,.115,0,.171a1.437,1.437,0,0,0,.016.159.192.192,0,0,0,.044.107.154.154,0,0,0,.135.056h.19a.668.668,0,0,1,.075,0h.023a.182.182,0,0,0,.044-.005.16.16,0,0,1,.039-.005h.026a.069.069,0,0,0,.038-.013.223.223,0,0,0,.111-.183v-.135a.383.383,0,0,0,.008-.135,1.276,1.276,0,0,1-.008-.135V48.729a.342.342,0,0,1,.016-.107.825.825,0,0,1,.091-.186c.034-.05.07-.1.107-.163l.041-.063.126-.195c.054-.084.11-.168.167-.25.169-.272.345-.552.524-.833s.356-.549.539-.817c.025-.04.048-.079.071-.119s.045-.074.071-.111c.042-.058.082-.118.119-.178s.078-.124.119-.186a.452.452,0,0,0,.052-.107.089.089,0,0,0-.028-.115.176.176,0,0,0-.1-.036c-.042,0-.085,0-.127,0h-.266a.324.324,0,0,0-.2.056.411.411,0,0,0-.079.087c-.019.029-.04.063-.063.1-.041.062-.083.127-.123.194s-.08.133-.123.2c-.145.226-.286.453-.42.674s-.271.444-.421.682c-.049.076-.1.154-.139.23a2.589,2.589,0,0,1-.147.23.312.312,0,0,1-.059.075.1.1,0,0,1-.075.032.137.137,0,0,1-.032,0,.167.167,0,0,1-.1-.067c-.024-.035-.047-.071-.068-.107-.051-.077-.1-.157-.155-.238L52,47.162c-.145-.237-.291-.469-.432-.69l-.44-.69c-.037-.053-.072-.107-.1-.159l-.1-.159-.075-.1a.277.277,0,0,0-.1-.079.516.516,0,0,0-.206-.033h-.056c-.116.005-.215.008-.293.008a.017.017,0,0,1-.013.005h-.007a.064.064,0,0,0-.02,0ZM37.945,46.572a.034.034,0,0,1,.025.01.126.126,0,0,0,.032.024.321.321,0,0,1,.087.091c.023.037.045.075.063.107.188.277.372.557.547.833.1.154.2.312.305.468s.2.3.306.468c.181.285.368.573.555.857s.373.564.563.849c.046.074.088.141.131.206l.131.2c.027.038.053.076.075.111a.2.2,0,0,0,.1.079.369.369,0,0,0,.163.032h.4l.107-.028a.132.132,0,0,0,.075-.059.192.192,0,0,0,.036-.135c0-.055,0-.112,0-.175V45.646a1.982,1.982,0,0,0-.012-.234.163.163,0,0,0-.107-.139.24.24,0,0,0-.091-.016h-.1c-.074,0-.143,0-.206,0a.176.176,0,0,0-.143.067.129.129,0,0,0-.02.056.191.191,0,0,1-.02.063v.087a.3.3,0,0,0-.008.119,1.006,1.006,0,0,1,.008.119v3.7a.205.205,0,0,1-.04.135c0,.005-.013.013-.04.024a.174.174,0,0,1-.147-.091c-.04-.061-.073-.113-.1-.155l-.274-.417c-.09-.136-.182-.279-.274-.424a1.977,1.977,0,0,0-.139-.21,1.907,1.907,0,0,1-.139-.21c-.162-.251-.327-.506-.492-.758s-.325-.5-.484-.758c-.039-.061-.076-.117-.115-.171s-.078-.112-.115-.17c-.067-.109-.138-.22-.21-.329l-.21-.321c-.032-.048-.067-.1-.1-.163a.489.489,0,0,0-.119-.139.408.408,0,0,0-.241-.06h-.02c-.116,0-.223,0-.317,0a.063.063,0,0,1-.027.005h-.034a.061.061,0,0,0-.026.005.207.207,0,0,0-.1.071.323.323,0,0,0-.039.171V50.7a.2.2,0,0,0,.039.131.157.157,0,0,0,.127.071c.058.005.124.008.2.008h.159l.087-.028a.083.083,0,0,0,.056-.052.494.494,0,0,0,.032-.111v-.064a.215.215,0,0,0,.012-.095c0-.034,0-.066,0-.1V47.043a1.107,1.107,0,0,0-.008-.131.31.31,0,0,1,.008-.123v-.056a.606.606,0,0,0,.024-.1.077.077,0,0,1,.056-.063ZM31.518,45.26a.049.049,0,0,0-.021.005.185.185,0,0,0-.119.079.175.175,0,0,0-.032.111V50.7a.22.22,0,0,0,.032.123.161.161,0,0,0,.119.075,1.3,1.3,0,0,0,.19.012h3.367a.22.22,0,0,0,.123-.032.207.207,0,0,0,.072-.087c.005-.022.011-.053.016-.091a.609.609,0,0,0,0-.119c0-.038-.006-.077-.012-.115a.2.2,0,0,0-.024-.079.217.217,0,0,0-.127-.087.269.269,0,0,0-.086-.013H35c-.042,0-.085,0-.127,0H32.441c-.058,0-.111,0-.159,0a.239.239,0,0,1-.127-.043.17.17,0,0,1-.064-.131c-.005-.062-.008-.13-.008-.2v-1.2c0-.042,0-.085,0-.127a.3.3,0,0,1,.012-.111.177.177,0,0,1,.083-.111.432.432,0,0,1,.139-.044.871.871,0,0,1,.126-.009h.045c.063,0,.126,0,.186,0h1.967a.784.784,0,0,1,.079,0h.026a.268.268,0,0,0,.053-.005h.047A.319.319,0,0,1,34.9,48.3a.073.073,0,0,0,.043-.02.149.149,0,0,0,.071-.1.446.446,0,0,0,.02-.115.734.734,0,0,0,0-.131A.817.817,0,0,0,35,47.812a.127.127,0,0,0-.04-.071.335.335,0,0,0-.115-.036,1.452,1.452,0,0,0-.167-.016l-.09,0-.088,0c-.058,0-.111,0-.159,0H32.52a.753.753,0,0,0-.075,0h-.023a.187.187,0,0,1-.044-.005H32.3a.489.489,0,0,1-.111-.032.175.175,0,0,1-.1-.127.8.8,0,0,1-.012-.19c0-.079,0-.148,0-.206v-.809c0-.084,0-.167,0-.246a.187.187,0,0,1,.083-.167.449.449,0,0,1,.224-.044h.026c.105,0,.206,0,.3,0h2.126a2.14,2.14,0,0,0,.246-.012.153.153,0,0,0,.135-.123.834.834,0,0,0,.016-.186.726.726,0,0,0-.016-.179l-.03-.045v0a.144.144,0,0,0-.04-.04.213.213,0,0,0-.127-.036h-.016c-.058,0-.117,0-.174,0H31.56a.049.049,0,0,1-.022.005h-.021ZM21.2,49.2a.193.193,0,0,1,.071.013.354.354,0,0,1,.127.064.294.294,0,0,1,.075.1.8.8,0,0,1,.047.119c.016.051.03.093.044.135.058.142.111.289.159.436s.1.292.159.428c.027.064.052.136.075.214a.275.275,0,0,0,.115.167.4.4,0,0,0,.194.04h.345a.258.258,0,0,0,.095-.016.107.107,0,0,0,.068-.075.268.268,0,0,0,0-.111.593.593,0,0,0-.036-.115c-.017-.04-.03-.07-.04-.1-.058-.138-.116-.28-.171-.42s-.112-.282-.171-.421c-.015-.045-.03-.09-.043-.135a1.286,1.286,0,0,0-.052-.135c-.164-.386-.32-.779-.464-1.17s-.3-.784-.456-1.17c-.047-.1-.091-.213-.131-.325s-.081-.22-.123-.325c-.052-.121-.1-.244-.143-.365s-.091-.246-.143-.365a1.96,1.96,0,0,1-.075-.195.31.31,0,0,0-.1-.155.438.438,0,0,0-.255-.06h-.022c-.126,0-.238,0-.333,0a.053.053,0,0,1-.023.005H19.97a.052.052,0,0,0-.023.005.211.211,0,0,0-.1.048.288.288,0,0,0-.107.155,1.917,1.917,0,0,1-.075.195c-.058.137-.113.279-.163.42s-.1.283-.163.421c-.158.384-.31.775-.452,1.162s-.295.777-.452,1.154c-.05.123-.094.235-.135.345s-.087.228-.135.345c-.069.17-.133.34-.19.5s-.125.336-.2.5a.392.392,0,0,0-.036.075.761.761,0,0,0-.032.1.318.318,0,0,0-.008.1.087.087,0,0,0,.044.071.172.172,0,0,0,.1.036c.039,0,.081,0,.123,0,.079,0,.155,0,.226,0a.3.3,0,0,0,.171-.052.228.228,0,0,0,.06-.075.931.931,0,0,0,.052-.115c.019-.05.032-.088.044-.123l.017-.05.019-.058c.053-.123.1-.251.147-.381s.094-.26.147-.381c.027-.069.049-.137.068-.2A.5.5,0,0,1,19,49.288a.158.158,0,0,1,.1-.064,1.131,1.131,0,0,1,.147-.024,1.088,1.088,0,0,1,.109-.005h.057c.058,0,.111,0,.159,0h1.5c.037,0,.073,0,.107,0ZM19.142,21.69a.846.846,0,0,0-.845.845V41.81a1.044,1.044,0,0,0,1.043,1.043h8a9.433,9.433,0,0,0,9.44-9.441V30.766A9.067,9.067,0,0,0,27.7,21.69Zm26.7,14.045a.475.475,0,0,1,.4.217l4.111,6.33a.891.891,0,0,0,.745.4h3.738a.506.506,0,0,0,.422-.785l-6.524-9.864a.6.6,0,0,1,0-.658l5.936-8.968a.463.463,0,0,0-.386-.718h-3.4a1.209,1.209,0,0,0-1.01.543l-3.614,5.461a.5.5,0,0,1-.826,0l-3.614-5.461a1.209,1.209,0,0,0-1.01-.543H37.4a.463.463,0,0,0-.386.718l5.936,8.968a.6.6,0,0,1,0,.658L36.425,41.9a.506.506,0,0,0,.422.785h3.738a.891.891,0,0,0,.745-.4l4.111-6.33A.475.475,0,0,1,45.84,35.735ZM20.847,48.586h-.035c-.084,0-.156,0-.214,0h-.849c-.074,0-.154,0-.238,0a.192.192,0,0,1-.167-.067.223.223,0,0,1-.02-.079.191.191,0,0,1,.012-.087,1.138,1.138,0,0,1,.04-.127l.024-.064.024-.064c.01-.024.019-.05.028-.079s.017-.052.028-.079c.084-.2.16-.408.226-.619a6.21,6.21,0,0,1,.234-.627A1.149,1.149,0,0,0,20,46.511a1.146,1.146,0,0,1,.064-.174c.011-.034.021-.063.032-.091a.288.288,0,0,1,.047-.083.13.13,0,0,1,.032-.024.125.125,0,0,0,.032-.024.086.086,0,0,1,.083.036.591.591,0,0,1,.036.075,1.145,1.145,0,0,1,.068.167,1.616,1.616,0,0,0,.067.174c.079.189.149.385.21.583s.132.395.21.583a1.153,1.153,0,0,1,.051.139c.013.044.027.088.043.131a.127.127,0,0,1,.016.056.126.126,0,0,0,.016.056c.016.032.033.07.051.115a.657.657,0,0,1,.04.135.238.238,0,0,1-.008.123.133.133,0,0,1-.091.079A.464.464,0,0,1,20.847,48.586Zm6.207-9.757H24a1.176,1.176,0,0,1-1.175-1.175V26.31a.746.746,0,0,1,.745-.745h3.146a5.585,5.585,0,0,1,5.589,5.59v2.423a5.186,5.186,0,0,1-.414,2.039,5.3,5.3,0,0,1-2.8,2.8A5.184,5.184,0,0,1,27.054,38.829Z" transform="translate(14.681 14.677)" fill="#f33" stroke="rgba(0,0,0,0)" stroke-miterlimit="10" stroke-width="1"></path><path id="Path_3257" data-name="Path 3257" d="M1021.535,787.78a4.3,4.3,0,1,1,2.092-5.712A4.293,4.293,0,0,1,1021.535,787.78Z" transform="translate(-941.225 -703.43)" fill="#f33" opacity="0.596"></path><path id="Path_3258" data-name="Path 3258" d="M985.435,799.855a7.339,7.339,0,1,1-5.9-8.535A7.348,7.348,0,0,1,985.435,799.855Z" transform="translate(-910.616 -712.848)" fill="#f33"></path><path id="Path_3259" data-name="Path 3259" d="M1024,817.881a2.71,2.71,0,1,1,1.317-3.6A2.711,2.711,0,0,1,1024,817.881Z" transform="translate(-944.303 -727.197)" fill="#f33" opacity="0.398"></path></g></svg> 